<mxfile host="app.diagrams.net" agent="Mozilla/5.0 (Windows NT 10.0; Win64; x64) AppleWebKit/537.36 (KHTML, like Gecko) Chrome/134.0.0.0 Safari/537.36 OPR/119.0.0.0" version="28.0.5">
  <diagram name="Page-1" id="wInsl25DfB8LrjNRBsv8">
    <mxGraphModel dx="1316" dy="754" grid="1" gridSize="10" guides="1" tooltips="1" connect="1" arrows="1" fold="1" page="1" pageScale="1" pageWidth="827" pageHeight="1169" math="0" shadow="0">
      <root>
        <mxCell id="0" />
        <mxCell id="1" parent="0" />
        <mxCell id="7xFYz6XLtJqfEESEcJfK-2" value="" style="whiteSpace=wrap;html=1;dashed=1;dashPattern=8 8;strokeColor=#3333FF;" parent="1" vertex="1">
          <mxGeometry x="77" y="280" width="553" height="430" as="geometry" />
        </mxCell>
        <mxCell id="7xFYz6XLtJqfEESEcJfK-3" value="Database/ Persistent Storage" style="shape=datastore;whiteSpace=wrap;html=1;" parent="1" vertex="1">
          <mxGeometry x="110" y="510" width="140" height="135" as="geometry" />
        </mxCell>
        <mxCell id="7xFYz6XLtJqfEESEcJfK-4" value="&lt;b&gt;Web Applicatio&lt;/b&gt;n&lt;div&gt;(ReactJs Library)&lt;/div&gt;" style="whiteSpace=wrap;html=1;aspect=fixed;" parent="1" vertex="1">
          <mxGeometry x="110" y="310" width="140" height="140" as="geometry" />
        </mxCell>
        <mxCell id="7xFYz6XLtJqfEESEcJfK-5" value="&lt;b&gt;LLM API Application&lt;/b&gt;&lt;div&gt;(Uses various AI models for task extraction)&lt;/div&gt;" style="whiteSpace=wrap;html=1;aspect=fixed;" parent="1" vertex="1">
          <mxGeometry x="447" y="519" width="135" height="135" as="geometry" />
        </mxCell>
        <mxCell id="7xFYz6XLtJqfEESEcJfK-6" value="&lt;div&gt;&lt;br&gt;&lt;/div&gt;&lt;div style=&quot;&quot;&gt;&lt;br&gt;&lt;/div&gt;&lt;div style=&quot;&quot;&gt;&lt;br&gt;&lt;/div&gt;&lt;b&gt;Developer&lt;/b&gt;" style="shape=actor;whiteSpace=wrap;html=1;" parent="1" vertex="1">
          <mxGeometry x="462" y="22" width="120" height="130" as="geometry" />
        </mxCell>
        <mxCell id="7xFYz6XLtJqfEESEcJfK-7" value="&lt;b&gt;API Application&lt;/b&gt; (Express Nodejs)" style="whiteSpace=wrap;html=1;aspect=fixed;" parent="1" vertex="1">
          <mxGeometry x="447" y="310" width="139" height="139" as="geometry" />
        </mxCell>
        <mxCell id="7xFYz6XLtJqfEESEcJfK-9" value="" style="endArrow=classic;html=1;rounded=0;exitX=0.007;exitY=0.984;exitDx=0;exitDy=0;exitPerimeter=0;entryX=0.5;entryY=0;entryDx=0;entryDy=0;dashed=1;dashPattern=8 8;" parent="1" source="7xFYz6XLtJqfEESEcJfK-6" target="7xFYz6XLtJqfEESEcJfK-4" edge="1">
          <mxGeometry width="50" height="50" relative="1" as="geometry">
            <mxPoint x="430" y="320" as="sourcePoint" />
            <mxPoint x="480" y="270" as="targetPoint" />
          </mxGeometry>
        </mxCell>
        <mxCell id="7xFYz6XLtJqfEESEcJfK-14" value="&lt;font style=&quot;font-size: 9px;&quot;&gt;&lt;b&gt;Uses [HTTPS]&lt;/b&gt;&lt;/font&gt;" style="edgeLabel;html=1;align=center;verticalAlign=middle;resizable=0;points=[];" parent="7xFYz6XLtJqfEESEcJfK-9" vertex="1" connectable="0">
          <mxGeometry x="-0.1036" y="2" relative="1" as="geometry">
            <mxPoint as="offset" />
          </mxGeometry>
        </mxCell>
        <mxCell id="7xFYz6XLtJqfEESEcJfK-10" value="" style="endArrow=classic;html=1;rounded=0;exitX=0.998;exitY=0.57;exitDx=0;exitDy=0;exitPerimeter=0;entryX=0;entryY=0.5;entryDx=0;entryDy=0;dashed=1;dashPattern=8 8;" parent="1" source="7xFYz6XLtJqfEESEcJfK-4" target="7xFYz6XLtJqfEESEcJfK-7" edge="1">
          <mxGeometry width="50" height="50" relative="1" as="geometry">
            <mxPoint x="391" y="280" as="sourcePoint" />
            <mxPoint x="210" y="392" as="targetPoint" />
          </mxGeometry>
        </mxCell>
        <mxCell id="7xFYz6XLtJqfEESEcJfK-18" value="&lt;b&gt;Uses [Https/Json]&lt;/b&gt;" style="edgeLabel;html=1;align=center;verticalAlign=middle;resizable=0;points=[];" parent="7xFYz6XLtJqfEESEcJfK-10" vertex="1" connectable="0">
          <mxGeometry x="-0.018" y="-1" relative="1" as="geometry">
            <mxPoint as="offset" />
          </mxGeometry>
        </mxCell>
        <mxCell id="7xFYz6XLtJqfEESEcJfK-11" value="" style="endArrow=classic;html=1;rounded=0;exitX=0;exitY=1;exitDx=0;exitDy=0;entryX=1.013;entryY=0.382;entryDx=0;entryDy=0;entryPerimeter=0;dashed=1;dashPattern=8 8;" parent="1" source="7xFYz6XLtJqfEESEcJfK-7" target="7xFYz6XLtJqfEESEcJfK-3" edge="1">
          <mxGeometry width="50" height="50" relative="1" as="geometry">
            <mxPoint x="611" y="501" as="sourcePoint" />
            <mxPoint x="310" y="500" as="targetPoint" />
          </mxGeometry>
        </mxCell>
        <mxCell id="7xFYz6XLtJqfEESEcJfK-12" value="&lt;font style=&quot;font-size: 9px;&quot;&gt;&lt;b&gt;Reads from and Writes to DB&lt;/b&gt;&lt;/font&gt;" style="edgeLabel;html=1;align=center;verticalAlign=middle;resizable=0;points=[];" parent="7xFYz6XLtJqfEESEcJfK-11" vertex="1" connectable="0">
          <mxGeometry x="-0.0001" y="2" relative="1" as="geometry">
            <mxPoint as="offset" />
          </mxGeometry>
        </mxCell>
        <mxCell id="7xFYz6XLtJqfEESEcJfK-15" value="" style="endArrow=classic;html=1;rounded=0;exitX=0.5;exitY=1;exitDx=0;exitDy=0;entryX=0.5;entryY=0;entryDx=0;entryDy=0;dashed=1;dashPattern=8 8;" parent="1" source="7xFYz6XLtJqfEESEcJfK-7" target="7xFYz6XLtJqfEESEcJfK-5" edge="1">
          <mxGeometry width="50" height="50" relative="1" as="geometry">
            <mxPoint x="380" y="382" as="sourcePoint" />
            <mxPoint x="680" y="380" as="targetPoint" />
          </mxGeometry>
        </mxCell>
        <mxCell id="7xFYz6XLtJqfEESEcJfK-17" value="&lt;b&gt;Delivers&amp;nbsp;&lt;/b&gt;" style="edgeLabel;html=1;align=center;verticalAlign=middle;resizable=0;points=[];" parent="7xFYz6XLtJqfEESEcJfK-15" vertex="1" connectable="0">
          <mxGeometry x="-0.1146" y="1" relative="1" as="geometry">
            <mxPoint as="offset" />
          </mxGeometry>
        </mxCell>
        <mxCell id="7xFYz6XLtJqfEESEcJfK-16" value="&lt;b&gt;&lt;font style=&quot;font-size: 17px;&quot;&gt;Container Diagram for Developer Task Management Application&lt;/font&gt;&lt;/b&gt;" style="text;html=1;align=center;verticalAlign=middle;resizable=0;points=[];autosize=1;strokeColor=none;fillColor=none;" parent="1" vertex="1">
          <mxGeometry x="282" y="765" width="540" height="30" as="geometry" />
        </mxCell>
        <mxCell id="7xFYz6XLtJqfEESEcJfK-19" value="&lt;font style=&quot;font-size: 10px; color: rgb(163, 163, 163);&quot;&gt;&lt;b style=&quot;&quot;&gt;Computer System: Task Management Application&lt;/b&gt;&lt;/font&gt;" style="edgeLabel;html=1;align=center;verticalAlign=middle;resizable=0;points=[];" parent="1" vertex="1" connectable="0">
          <mxGeometry x="220" y="691" as="geometry" />
        </mxCell>
        <mxCell id="7xFYz6XLtJqfEESEcJfK-20" value="&lt;b&gt;GitHub Issues&lt;/b&gt;&lt;div&gt;(Using Github CLI)&lt;/div&gt;" style="whiteSpace=wrap;html=1;aspect=fixed;fillColor=#E6E6E6;rounded=1;" parent="1" vertex="1">
          <mxGeometry x="791" y="313" width="135" height="135" as="geometry" />
        </mxCell>
        <mxCell id="7xFYz6XLtJqfEESEcJfK-21" value="" style="endArrow=classic;html=1;rounded=0;exitX=0;exitY=0.5;exitDx=0;exitDy=0;dashed=1;dashPattern=8 8;" parent="1" source="7xFYz6XLtJqfEESEcJfK-20" target="7xFYz6XLtJqfEESEcJfK-7" edge="1">
          <mxGeometry width="50" height="50" relative="1" as="geometry">
            <mxPoint x="797.5" y="550" as="sourcePoint" />
            <mxPoint x="1097.5" y="540" as="targetPoint" />
          </mxGeometry>
        </mxCell>
        <mxCell id="7xFYz6XLtJqfEESEcJfK-22" value="&lt;b&gt;Uses [Webhooks]&lt;/b&gt;" style="edgeLabel;html=1;align=center;verticalAlign=middle;resizable=0;points=[];" parent="7xFYz6XLtJqfEESEcJfK-21" vertex="1" connectable="0">
          <mxGeometry x="-0.018" y="-1" relative="1" as="geometry">
            <mxPoint as="offset" />
          </mxGeometry>
        </mxCell>
        <mxCell id="7xFYz6XLtJqfEESEcJfK-23" value="" style="endArrow=classic;html=1;rounded=0;exitX=1.02;exitY=0.81;exitDx=0;exitDy=0;exitPerimeter=0;entryX=0.5;entryY=0;entryDx=0;entryDy=0;dashed=1;dashPattern=8 8;" parent="1" source="7xFYz6XLtJqfEESEcJfK-6" target="7xFYz6XLtJqfEESEcJfK-20" edge="1">
          <mxGeometry width="50" height="50" relative="1" as="geometry">
            <mxPoint x="491" y="220" as="sourcePoint" />
            <mxPoint x="310" y="332" as="targetPoint" />
          </mxGeometry>
        </mxCell>
        <mxCell id="7xFYz6XLtJqfEESEcJfK-24" value="&lt;font size=&quot;1&quot;&gt;&lt;b&gt;Accesses Issues&lt;/b&gt;&lt;/font&gt;" style="edgeLabel;html=1;align=center;verticalAlign=middle;resizable=0;points=[];" parent="7xFYz6XLtJqfEESEcJfK-23" vertex="1" connectable="0">
          <mxGeometry x="-0.1036" y="2" relative="1" as="geometry">
            <mxPoint as="offset" />
          </mxGeometry>
        </mxCell>
      </root>
    </mxGraphModel>
  </diagram>
</mxfile>
